{
    "asset" : {
        "generator" : "Khronos glTF Blender I/O v1.7.33",
        "version" : "2.0"
    },
    "scene" : 0,
    "scenes" : [
        {
            "name" : "Scene",
            "nodes" : [
                0
            ]
        }
    ],
    "nodes" : [
        {
            "mesh" : 0,
            "name" : "19354_Rubber_duck_v1",
            "rotation" : [
                0.7071068286895752,
                0,
                0,
                0.7071067094802856
            ]
        }
    ],
    "materials" : [
        {
            "doubleSided" : true,
            "name" : "Yellow",
            "pbrMetallicRoughness" : {
                "baseColorFactor" : [
                    0.800000011920929,
                    0.800000011920929,
                    0.800000011920929,
                    1
                ],
                "metallicFactor" : 0,
                "roughnessFactor" : 0.5
            }
        },
        {
            "doubleSided" : true,
            "name" : "Orange",
            "pbrMetallicRoughness" : {
                "baseColorFactor" : [
                    0.800000011920929,
                    0.800000011920929,
                    0.800000011920929,
                    1
                ],
                "metallicFactor" : 0,
                "roughnessFactor" : 0.5
            }
        },
        {
            "doubleSided" : true,
            "name" : "Black",
            "pbrMetallicRoughness" : {
                "baseColorFactor" : [
                    0.800000011920929,
                    0.800000011920929,
                    0.800000011920929,
                    1
                ],
                "metallicFactor" : 0,
                "roughnessFactor" : 0.5
            }
        },
        {
            "doubleSided" : true,
            "name" : "White",
            "pbrMetallicRoughness" : {
                "baseColorFactor" : [
                    0.800000011920929,
                    0.800000011920929,
                    0.800000011920929,
                    1
                ],
                "metallicFactor" : 0,
                "roughnessFactor" : 0.5
            }
        }
    ],
    "meshes" : [
        {
            "name" : "19354_Rubber_duck_v1",
            "primitives" : [
                {
                    "attributes" : {
                        "POSITION" : 0,
                        "NORMAL" : 1
                    },
                    "indices" : 2,
                    "material" : 0
                },
                {
                    "attributes" : {
                        "POSITION" : 3,
                        "NORMAL" : 4
                    },
                    "indices" : 5,
                    "material" : 1
                },
                {
                    "attributes" : {
                        "POSITION" : 6,
                        "NORMAL" : 7
                    },
                    "indices" : 8,
                    "material" : 2
                },
                {
                    "attributes" : {
                        "POSITION" : 9,
                        "NORMAL" : 10
                    },
                    "indices" : 11,
                    "material" : 3
                }
            ]
        }
    ],
    "accessors" : [
        {
            "bufferView" : 0,
            "componentType" : 5126,
            "count" : 6352,
            "max" : [
                1.8757380247116089,
                1.5066230297088623,
                1.653228998184204
            ],
            "min" : [
                -2.523361921310425,
                -1.5066230297088623,
                -2.3954710960388184
            ],
            "type" : "VEC3"
        },
        {
            "bufferView" : 1,
            "componentType" : 5126,
            "count" : 6352,
            "type" : "VEC3"
        },
        {
            "bufferView" : 2,
            "componentType" : 5123,
            "count" : 37704,
            "type" : "SCALAR"
        },
        {
            "bufferView" : 3,
            "componentType" : 5126,
            "count" : 921,
            "max" : [
                2.4573380947113037,
                0.6947230100631714,
                -0.6037700176239014
            ],
            "min" : [
                1.4432380199432373,
                -0.6947230100631714,
                -1.3481709957122803
            ],
            "type" : "VEC3"
        },
        {
            "bufferView" : 4,
            "componentType" : 5126,
            "count" : 921,
            "type" : "VEC3"
        },
        {
            "bufferView" : 5,
            "componentType" : 5123,
            "count" : 5376,
            "type" : "SCALAR"
        },
        {
            "bufferView" : 6,
            "componentType" : 5126,
            "count" : 482,
            "max" : [
                1.6625380516052246,
                0.733223021030426,
                -1.39867103099823
            ],
            "min" : [
                1.4443379640579224,
                -0.733223021030426,
                -1.6845710277557373
            ],
            "type" : "VEC3"
        },
        {
            "bufferView" : 7,
            "componentType" : 5126,
            "count" : 482,
            "type" : "VEC3"
        },
        {
            "bufferView" : 8,
            "componentType" : 5123,
            "count" : 2688,
            "type" : "SCALAR"
        },
        {
            "bufferView" : 9,
            "componentType" : 5126,
            "count" : 1024,
            "max" : [
                1.7171380519866943,
                0.8656229972839355,
                -1.3084700107574463
            ],
            "min" : [
                1.2566380500793457,
                -0.8656229972839355,
                -1.9096709489822388
            ],
            "type" : "VEC3"
        },
        {
            "bufferView" : 10,
            "componentType" : 5126,
            "count" : 1024,
            "type" : "VEC3"
        },
        {
            "bufferView" : 11,
            "componentType" : 5123,
            "count" : 5760,
            "type" : "SCALAR"
        }
    ],
    "bufferViews" : [
        {
            "buffer" : 0,
            "byteLength" : 76224,
            "byteOffset" : 0
        },
        {
            "buffer" : 0,
            "byteLength" : 76224,
            "byteOffset" : 76224
        },
        {
            "buffer" : 0,
            "byteLength" : 75408,
            "byteOffset" : 152448
        },
        {
            "buffer" : 0,
            "byteLength" : 11052,
            "byteOffset" : 227856
        },
        {
            "buffer" : 0,
            "byteLength" : 11052,
            "byteOffset" : 238908
        },
        {
            "buffer" : 0,
            "byteLength" : 10752,
            "byteOffset" : 249960
        },
        {
            "buffer" : 0,
            "byteLength" : 5784,
            "byteOffset" : 260712
        },
        {
            "buffer" : 0,
            "byteLength" : 5784,
            "byteOffset" : 266496
        },
        {
            "buffer" : 0,
            "byteLength" : 5376,
            "byteOffset" : 272280
        },
        {
            "buffer" : 0,
            "byteLength" : 12288,
            "byteOffset" : 277656
        },
        {
            "buffer" : 0,
            "byteLength" : 12288,
            "byteOffset" : 289944
        },
        {
            "buffer" : 0,
            "byteLength" : 11520,
            "byteOffset" : 302232
        }
    ],
    "buffers" : [
        {
            "byteLength" : 313752,
            "uri" : "data:application/octet-stream;base64,"
        }
    ]
}
